<?xml version="1.0" standalone="no"?>
<!DOCTYPE svg PUBLIC "-//W3C//DTD SVG 20010904//EN"
 "http://www.w3.org/TR/2001/REC-SVG-20010904/DTD/svg10.dtd">
<svg version="1.0" xmlns="http://www.w3.org/2000/svg"
 width="157.000000pt" height="51.000000pt" viewBox="0 0 157.000000 51.000000"
 preserveAspectRatio="xMidYMid meet">

<g transform="translate(0.000000,51.000000) scale(0.100000,-0.100000)"
fill="#fff" stroke="none">
<path d="M1317 406 c30 -37 73 -51 54 -18 -23 38 -39 52 -61 52 -22 0 -21 -1
7 -34z"/>
<path d="M750 354 l0 -76 -31 26 c-57 48 -158 26 -194 -43 -63 -124 74 -253
191 -180 l34 21 0 -21 c0 -12 6 -21 15 -21 13 0 15 27 15 185 0 158 -2 185
-15 185 -12 0 -15 -15 -15 -76z m-34 -88 c43 -43 46 -90 8 -135 -50 -60 -140
-46 -170 26 -20 47 -4 97 40 124 47 29 82 25 122 -15z"/>
<path d="M1090 354 l0 -76 -31 26 c-57 48 -158 26 -194 -43 -33 -65 -8 -154
54 -186 42 -21 103 -19 134 5 32 25 37 25 37 0 0 -11 7 -20 15 -20 13 0 15 27
15 185 0 158 -2 185 -15 185 -12 0 -15 -15 -15 -76z m-38 -83 c28 -25 33 -36
33 -74 0 -107 -129 -145 -185 -55 -64 101 64 208 152 129z"/>
<path d="M256 349 c-18 -41 -55 -118 -80 -173 -51 -109 -53 -116 -31 -116 8 0
28 27 45 60 l30 60 78 0 77 -1 27 -59 c16 -36 33 -60 42 -60 9 0 16 4 16 9 0
12 -150 334 -160 345 -6 6 -23 -20 -44 -65z m70 -64 c13 -31 24 -58 24 -60 0
-3 -25 -5 -55 -5 -30 0 -55 2 -55 5 0 7 54 115 58 115 2 0 14 -25 28 -55z"/>
<path d="M1263 330 c-87 -52 -87 -198 0 -250 49 -30 127 -27 167 6 84 72 79
189 -12 244 -43 26 -113 26 -155 0z m123 -43 c35 -31 34 -60 -6 -131 -33 -58
-33 -58 -50 -36 -9 12 -27 41 -40 65 -28 52 -21 91 20 112 35 18 45 16 76 -10z"/>
<path d="M1294 265 c-19 -29 -11 -59 30 -109 l23 -30 27 46 c14 24 26 54 26
66 0 52 -76 72 -106 27z m77 -11 c17 -21 0 -49 -32 -49 -24 0 -36 23 -25 51 7
19 40 18 57 -2z"/>
<path d="M1323 244 c-3 -8 -1 -20 5 -26 15 -15 43 8 35 28 -7 19 -32 18 -40
-2z"/>
</g>
</svg>
